<mxfile host="app.diagrams.net" modified="2023-04-27T07:20:15.471Z" agent="Mozilla/5.0 (Windows NT 10.0; Win64; x64) AppleWebKit/537.36 (KHTML, like Gecko) Chrome/112.0.0.0 Safari/537.36" etag="X8ET-HEjDfiAoqd2unB7" version="21.1.2" type="device">
  <diagram name="Page-1" id="mH1HZzNUKUNoqiUNEQn7">
    <mxGraphModel dx="1011" dy="537" grid="1" gridSize="10" guides="1" tooltips="1" connect="1" arrows="1" fold="1" page="1" pageScale="1" pageWidth="850" pageHeight="1100" math="0" shadow="0">
      <root>
        <mxCell id="0" />
        <mxCell id="1" parent="0" />
        <mxCell id="p7b-Pn-E97fyXo4eR0Bt-2" value="Turn Device On" style="rounded=1;whiteSpace=wrap;html=1;" vertex="1" parent="1">
          <mxGeometry x="300" y="150" width="140" height="70" as="geometry" />
        </mxCell>
        <mxCell id="p7b-Pn-E97fyXo4eR0Bt-3" value="" style="endArrow=classic;html=1;rounded=0;exitX=0.5;exitY=1;exitDx=0;exitDy=0;entryX=0.5;entryY=0;entryDx=0;entryDy=0;" edge="1" parent="1" source="p7b-Pn-E97fyXo4eR0Bt-2" target="p7b-Pn-E97fyXo4eR0Bt-7">
          <mxGeometry width="50" height="50" relative="1" as="geometry">
            <mxPoint x="390" y="280" as="sourcePoint" />
            <mxPoint x="375" y="280" as="targetPoint" />
          </mxGeometry>
        </mxCell>
        <mxCell id="p7b-Pn-E97fyXo4eR0Bt-5" value="" style="endArrow=classic;html=1;rounded=0;exitX=0.5;exitY=1;exitDx=0;exitDy=0;" edge="1" parent="1" source="p7b-Pn-E97fyXo4eR0Bt-7">
          <mxGeometry width="50" height="50" relative="1" as="geometry">
            <mxPoint x="350" y="320" as="sourcePoint" />
            <mxPoint x="370" y="400" as="targetPoint" />
          </mxGeometry>
        </mxCell>
        <mxCell id="p7b-Pn-E97fyXo4eR0Bt-6" value="Bluetooth Connected" style="edgeLabel;html=1;align=center;verticalAlign=middle;resizable=0;points=[];" vertex="1" connectable="0" parent="p7b-Pn-E97fyXo4eR0Bt-5">
          <mxGeometry x="-0.4212" y="1" relative="1" as="geometry">
            <mxPoint x="-1" y="13" as="offset" />
          </mxGeometry>
        </mxCell>
        <mxCell id="p7b-Pn-E97fyXo4eR0Bt-7" value="Wait for Bluetooth Connection" style="rounded=1;whiteSpace=wrap;html=1;" vertex="1" parent="1">
          <mxGeometry x="300" y="280" width="140" height="60" as="geometry" />
        </mxCell>
        <mxCell id="p7b-Pn-E97fyXo4eR0Bt-8" value="" style="curved=1;endArrow=classic;html=1;rounded=0;entryX=1;entryY=0.25;entryDx=0;entryDy=0;" edge="1" parent="1" target="p7b-Pn-E97fyXo4eR0Bt-7">
          <mxGeometry width="50" height="50" relative="1" as="geometry">
            <mxPoint x="440" y="330" as="sourcePoint" />
            <mxPoint x="490" y="280" as="targetPoint" />
            <Array as="points">
              <mxPoint x="490" y="330" />
              <mxPoint x="510" y="310" />
              <mxPoint x="480" y="290" />
            </Array>
          </mxGeometry>
        </mxCell>
        <mxCell id="p7b-Pn-E97fyXo4eR0Bt-9" value="Not Connected" style="edgeLabel;html=1;align=center;verticalAlign=middle;resizable=0;points=[];" vertex="1" connectable="0" parent="p7b-Pn-E97fyXo4eR0Bt-8">
          <mxGeometry x="-0.5156" y="4" relative="1" as="geometry">
            <mxPoint x="23" y="-16" as="offset" />
          </mxGeometry>
        </mxCell>
        <mxCell id="p7b-Pn-E97fyXo4eR0Bt-12" value="Wait to get flex sensor values via Bluetooth" style="rounded=1;whiteSpace=wrap;html=1;" vertex="1" parent="1">
          <mxGeometry x="300" y="400" width="140" height="60" as="geometry" />
        </mxCell>
        <mxCell id="p7b-Pn-E97fyXo4eR0Bt-14" value="" style="curved=1;endArrow=classic;html=1;rounded=0;entryX=1;entryY=0.25;entryDx=0;entryDy=0;" edge="1" parent="1">
          <mxGeometry width="50" height="50" relative="1" as="geometry">
            <mxPoint x="440" y="450" as="sourcePoint" />
            <mxPoint x="440" y="417" as="targetPoint" />
            <Array as="points">
              <mxPoint x="490" y="450" />
              <mxPoint x="510" y="430" />
              <mxPoint x="480" y="410" />
            </Array>
          </mxGeometry>
        </mxCell>
        <mxCell id="p7b-Pn-E97fyXo4eR0Bt-15" value="No Data" style="edgeLabel;html=1;align=center;verticalAlign=middle;resizable=0;points=[];" vertex="1" connectable="0" parent="p7b-Pn-E97fyXo4eR0Bt-14">
          <mxGeometry x="-0.5156" y="4" relative="1" as="geometry">
            <mxPoint x="23" y="-16" as="offset" />
          </mxGeometry>
        </mxCell>
        <mxCell id="p7b-Pn-E97fyXo4eR0Bt-17" value="" style="endArrow=classic;html=1;rounded=0;exitX=0.5;exitY=1;exitDx=0;exitDy=0;" edge="1" parent="1">
          <mxGeometry width="50" height="50" relative="1" as="geometry">
            <mxPoint x="369.64" y="460" as="sourcePoint" />
            <mxPoint x="369.64" y="520" as="targetPoint" />
          </mxGeometry>
        </mxCell>
        <mxCell id="p7b-Pn-E97fyXo4eR0Bt-18" value="Data" style="edgeLabel;html=1;align=center;verticalAlign=middle;resizable=0;points=[];" vertex="1" connectable="0" parent="p7b-Pn-E97fyXo4eR0Bt-17">
          <mxGeometry x="-0.4212" y="1" relative="1" as="geometry">
            <mxPoint x="-1" y="13" as="offset" />
          </mxGeometry>
        </mxCell>
        <mxCell id="p7b-Pn-E97fyXo4eR0Bt-19" value="Map Flex value to correct Servo Angle and set servos to correct states&amp;nbsp;" style="rounded=1;whiteSpace=wrap;html=1;" vertex="1" parent="1">
          <mxGeometry x="300" y="520" width="140" height="60" as="geometry" />
        </mxCell>
        <mxCell id="p7b-Pn-E97fyXo4eR0Bt-20" value="" style="curved=1;endArrow=classic;html=1;rounded=0;entryX=0;entryY=0.5;entryDx=0;entryDy=0;" edge="1" parent="1" source="p7b-Pn-E97fyXo4eR0Bt-19" target="p7b-Pn-E97fyXo4eR0Bt-12">
          <mxGeometry width="50" height="50" relative="1" as="geometry">
            <mxPoint x="390" y="540" as="sourcePoint" />
            <mxPoint x="440" y="490" as="targetPoint" />
            <Array as="points">
              <mxPoint x="300" y="550" />
              <mxPoint x="190" y="470" />
              <mxPoint x="250" y="420" />
            </Array>
          </mxGeometry>
        </mxCell>
      </root>
    </mxGraphModel>
  </diagram>
</mxfile>
